<svg id="Layer_1_copy" data-name="Layer 1 copy" xmlns="http://www.w3.org/2000/svg" viewBox="0 0 85.22 70.99"><defs><style>.cls-1{fill:#ff0200;}.cls-2{fill:#f97070;}</style></defs><title>NU-logo</title><g id="Right"><path id="left" class="cls-1" d="M21.39,41.8,56,7.23a16,16,0,0,1,22.49-.15l4.61,4.61A15.91,15.91,0,0,1,83,34.14L58.78,58.28c-3.05,3-11,10.7-11,10.7" transform="translate(-2.45 -1.43)"/><path class="cls-2" d="M26.44,53l35-34.92c2.92-2.91,8-2.59,11.35.73h0c3.32,3.32,3.65,8.42.73,11.33l-35,34.92" transform="translate(-2.45 -1.43)"/></g><g id="Left-2" data-name="Left"><path id="left-3" data-name="left" class="cls-1" d="M44.49,72.42,7.44,35.51a17.06,17.06,0,0,1,0-24.12l5-5a17.23,17.23,0,0,1,24.22,0L62.53,32.17,73.78,43.42" transform="translate(-2.45 -1.43)"/><path class="cls-2" d="M53.51,63.5,21.12,31.24c-2.7-2.69-2.38-7.42.72-10.51h0c3.1-3.08,7.85-3.4,10.55-.71L64.83,52.45" transform="translate(-2.45 -1.43)"/></g></svg>